<?xml version="1.0" encoding="utf-8"?>
<!-- Generator: Adobe Illustrator 23.1.1, SVG Export Plug-In . SVG Version: 6.00 Build 0)  -->
<svg version="1.1" id="Layer_1" xmlns="http://www.w3.org/2000/svg" xmlns:xlink="http://www.w3.org/1999/xlink" x="0px" y="0px"
	 viewBox="0 0 62 20" style="enable-background:new 0 0 62 20;" xml:space="preserve">
<style type="text/css">
	.st0{fill:#072AC8;}
</style>
<g>
	<path class="st0" d="M1.5,7.2L1.3,3.8C6,3.4,10.2,3,14.1,2.7L14,6L9.7,6.2L9.9,18l-3.3-0.4L6.4,6.4L1.5,7.2z"/>
	<path class="st0" d="M17.8,3.8c0.6-0.1,1.1-0.2,1.6-0.2c2.6,0,4.3,1.4,5,4.1c0.4,1.4,0.6,3,0.5,4.8l-0.1,4.3L21.7,17l0-0.6
		c-4.1-0.1-6.2-1.1-6.4-3c0-0.3,0-0.5,0-0.6c0-1.5,0.6-2.5,1.8-2.9c0.6-0.2,1.2-0.3,1.8-0.3c0.8,0,1.6,0.2,2.5,0.5
		c0-1.4,0-2.2-0.1-2.3c-0.2-0.6-0.7-0.9-1.7-1c-0.8-0.1-1.6,0.6-2.3,2L14,8.4C14.9,5.7,16.2,4.2,17.8,3.8z M19.9,11.9
		c-0.9,0-1.3,0.2-1.4,0.7c-0.1,0.7,0.9,1.2,3,1.6l-0.1-2.2C20.8,11.9,20.3,11.9,19.9,11.9z"/>
	<path class="st0" d="M30.5,10.4c0.5-1.6,1-3.6,1.5-6L35.2,5c-0.9,3.5-1.5,5.7-1.8,6.5c-0.8,2.4-1.7,4.2-2.5,5.3
		c-1.3,1.6-3,2.4-5,2.4c-0.3,0-0.7,0-1-0.1v-3.7c0.5,0.2,0.9,0.3,1.4,0.3c1,0,1.8-0.5,2.4-1.5L25.3,5l3.4-0.8L30.5,10.4z"/>
	<path class="st0" d="M38.6,1.1l1.1,15.3l-3.4,0.4L35.7,1.1H38.6z"/>
	<path class="st0" d="M40.3,11.7c0.1-1.9,0.5-3.6,1.4-4.9c1.1-1.6,2.5-2.5,4.2-2.5c1.9,0,3.2,0.5,4.1,1.4c0.7,0.8,1.2,2.1,1.6,4.1
		c0.2,0.8,0.2,1.5,0.2,2.2c0,1.5-0.4,2.7-1.1,3.7c-1.1,1.4-2.7,2.1-4.8,2c-2-0.1-3.4-0.6-4.4-1.5C40.6,15.1,40.2,13.6,40.3,11.7z
		 M47.7,8.7c-0.6-0.6-1.1-0.8-1.7-0.8c-0.6,0-1.2,0.4-1.8,1.3c-0.5,0.7-0.7,1.5-0.7,2.2c0,0.7,0.2,1.3,0.7,2c0.5,0.8,1,1.2,1.7,1.2
		c0.7,0,1.4-0.4,2-1.1c0.6-0.7,0.9-1.5,0.9-2.2C48.7,10.3,48.4,9.5,47.7,8.7z"/>
	<path class="st0" d="M52.3,17.2c0-5.1-0.1-9.2-0.4-12.2l3.5-0.3l-0.1,1.1c1.7-1.1,3.5-1.6,5.3-1.5l0.3,3c-2.1,0-3.5,0.4-4.4,1.3
		c-0.6,0.6-0.9,2.1-0.9,4.5c0,1.1,0.1,2.4,0.2,3.9L52.3,17.2z"/>
</g>
</svg>
